<?xml version="1.0" encoding="utf-8"?>
<!-- Generator: Adobe Illustrator 26.1.0, SVG Export Plug-In . SVG Version: 6.00 Build 0)  -->
<svg version="1.1" id="Layer_1" xmlns="http://www.w3.org/2000/svg" xmlns:xlink="http://www.w3.org/1999/xlink" x="0px" y="0px"
	 viewBox="0 0 207.4 52.1" style="enable-background:new 0 0 207.4 52.1;" xml:space="preserve">
<g>
	<path d="M126.4,14.8c-3.3,0-6,0.7-8.6,2.1c0-7.6,0-14.6,0.2-16.9l-16,2.9v1.4l1.7,0.2c2.1,0.5,2.9,1.7,3.3,4.5
		c0.5,5.7,0.2,36.3,0,41.3c4.3,1,8.8,1.7,13.4,1.7c12.6,0,20.3-7.9,20.3-20.3C140.7,21.9,134.5,14.8,126.4,14.8z M120.9,49.4
		c-1,0-2.1,0-2.9-0.2c-0.2-3.3-0.5-17.4-0.2-29.8c1.4-0.5,2.4-0.7,3.6-0.7c5.2,0,8.1,6.2,8.1,13.8C129.5,42,126,49.4,120.9,49.4z"/>
	<path d="M27.6,4.5c6.4,0,9.8,4.1,12.2,11.2l2.4-0.7L42,1H0v2.1l2.4,0.2c3.1,0.5,4.3,2.4,4.8,6.9c0.7,8.6,0.5,24.1,0,31.5
		c-0.5,4.5-1.7,6.7-4.8,6.9L0,49.1V51h27v-1.9l-2.9-0.5c-3.1-0.2-4.3-2.4-4.8-6.9c-0.2-3.1-0.5-8.1-0.5-14.3l5.7,0.2
		c3.6,0,5.2,2.9,6,6.9h2.1V17.7h-2.1c-0.7,4.1-2.4,6.9-6,6.9l-5.7,0.2c0-8.1,0.2-15.7,0.5-20.3H27.6z"/>
	<path d="M55.6,14.3C43.7,14.3,37,22.9,37,33.1C37,43.9,43,52,54.9,52c11.9,0,18.6-8.6,18.6-18.9C73.5,22.4,67.5,14.3,55.6,14.3z
		 M55.4,49.7c-4.8,0-7.2-7.4-7.2-16.5c0-9.3,1.5-16.5,6.7-16.5c5,0,7.4,7.4,7.4,16.5C62.3,42.5,60.9,49.7,55.4,49.7z"/>
	<path d="M198.6,29.4c-6.7-2.6-9.1-4.3-9.1-7.4s2.1-5.2,5-5.2c4.3,0,7.2,2.6,9.3,9.1l1.7-0.5l-0.1-9.2c-2.9-1.2-6.7-1.9-11-1.9
		c-8.8,0-14.3,5.2-14.3,11.4s4,8.8,9.8,10.7c6,2.1,7.6,3.8,7.6,6.7c0,2.9-2.1,5.5-6,5.5c-4.5,0-7.9-2.6-10.5-9.8l-1.7,0.5l0.2,10.5
		c2.9,1.2,8.1,2.1,12.6,2.1c9.3,0,15.3-4.8,15.3-12.2C207.4,34.7,204.8,31.8,198.6,29.4z"/>
	<path d="M162.2,14.3c-12.2,0-18.4,9.3-18.4,19.1c0,11,7.7,18.6,18.4,18.7c6.7,0,11.9-3.4,14.3-6.7l-1-1.2c-2.4,1.6-4.3,2.6-8.1,2.6
		c-8.5,0-12.8-6.5-12.6-15.3H177C177,21.7,172.2,14.3,162.2,14.3z M154.8,28.9c0.2-5.5,2.3-12.1,6.4-12.1c4.1,0,4.8,7.1,4.8,11.9
		L154.8,28.9z"/>
	<path d="M89.5,22.7l0.2-8.3l-16,3.1v1.4l1.7,0.2c2.1,0.2,3.1,1.4,3.3,4.5c0.5,5.7,0.2,15.7,0,20.8c-0.2,2.9-1.2,4.3-3.3,4.5
		l-1.7,0.2V51h22.2v-1.9L93,48.9c-2.4-0.2-3.1-1.7-3.3-4.5c-0.5-4.5-0.5-13.6-0.2-19.3c1.2-1.7,6.4-3.1,11.2,0l3.8-9.8
		C100.4,12.9,93.3,14.1,89.5,22.7z"/>
</g>
</svg>
