<?xml version="1.0" encoding="utf-8"?>
<!-- Generator: Adobe Illustrator 26.1.0, SVG Export Plug-In . SVG Version: 6.00 Build 0)  -->
<svg version="1.1" id="Layer_1" xmlns="http://www.w3.org/2000/svg" xmlns:xlink="http://www.w3.org/1999/xlink" x="0px" y="0px"
	 viewBox="0 0 174 46" style="enable-background:new 0 0 174 46;" xml:space="preserve">
<style type="text/css">
	.st0{fill:#FFFFFF;}
</style>
<g>
	<polygon class="st0" points="31,0 15,0 0,15 0,31 15,46 15,16 	"/>
	<polygon class="st0" points="31,0 31,30 15,46 31,46 46,31 46,15 	"/>
</g>
<g>
	<path class="st0" d="M58.8,22.7c0-8.2,5.8-13.4,14.5-13.4s14.5,5.2,14.5,13.4S82,36.1,73.3,36.1C64.6,36.2,58.8,31,58.8,22.7z
		 M83,22.7c0-6.1-3.8-9.6-9.7-9.6s-9.7,3.4-9.7,9.6s3.8,9.6,9.7,9.6S83,28.9,83,22.7z"/>
	<path class="st0" d="M92.6,22.7c0-8.3,5.6-13.4,14.4-13.4c7.5,0,12,3.2,13.2,9.4l-4.7,0.6c-0.9-4-3.9-6.1-8.6-6.1
		c-6,0-9.5,3.5-9.5,9.5c0,6.1,3.6,9.6,9.6,9.6c4.6,0,7.6-2,8.8-6l4.4,0.7c-1.3,5.8-6.2,9.2-13.3,9.2C98.2,36.2,92.6,30.9,92.6,22.7z
		"/>
	<path class="st0" d="M122,10.1h6.1V3.4l4.5-1.9V10h9v3.7h-9v13.1c0,3.5,1.6,5,5,5c1.5,0,2.8-0.2,4.1-0.5v4c-1.2,0.4-3,0.7-4.9,0.7
		c-7.1,0-8.7-4.1-8.7-8.9V13.7H122V10.1z"/>
	<path class="st0" d="M144.8,22.7c0-8.2,5.8-13.4,14.5-13.4s14.5,5.2,14.5,13.4s-5.8,13.4-14.5,13.4S144.8,31,144.8,22.7z M169,22.7
		c0-6.1-3.8-9.6-9.7-9.6s-9.7,3.4-9.7,9.6s3.8,9.6,9.7,9.6S169,28.9,169,22.7z"/>
</g>
</svg>
