<?xml version="1.0" encoding="iso-8859-1"?>
<!-- Generator: Adobe Illustrator 26.1.0, SVG Export Plug-In . SVG Version: 6.00 Build 0)  -->
<svg version="1.1" id="Layer_1" xmlns="http://www.w3.org/2000/svg" xmlns:xlink="http://www.w3.org/1999/xlink" x="0px" y="0px"
	 viewBox="0 0 174 46" style="enable-background:new 0 0 174 46;" xml:space="preserve">
<g>
	<polygon style="fill:#010202;" points="31,0 15,0 0,15 0,31 15,46 15,16 	"/>
	<polygon style="fill:#010202;" points="31,0 31,30 15,46 31,46 46,31 46,15 	"/>
</g>
<g>
	<path style="fill:#010202;" d="M58.76,22.86c0-7.956,6.12-12.427,14.687-12.427s14.734,4.472,14.734,12.427
		s-6.167,12.521-14.734,12.521S58.76,30.815,58.76,22.86z M79.99,22.86c0-4.613-2.542-7.014-6.543-7.014
		c-4.001,0-6.543,2.401-6.543,7.014s2.542,7.108,6.543,7.108C77.448,29.968,79.99,27.473,79.99,22.86z"/>
	<path style="fill:#010202;" d="M90.541,22.86c0-7.72,5.696-12.427,14.875-12.427c7.579,0,12.521,3.107,13.746,8.662l-7.956,1.365
		c-0.659-2.824-2.777-4.331-6.025-4.331c-4.001,0-6.402,2.448-6.402,6.59c0,4.331,2.448,6.873,6.449,6.873
		c3.248,0,5.319-1.506,6.025-4.378l7.908,1.506c-1.177,5.319-6.496,8.662-13.887,8.662C96.331,35.381,90.541,30.486,90.541,22.86z"
		/>
	<path style="fill:#010202;" d="M121.004,11.139h5.319V5.537l8.049-3.013v8.614h7.767v5.272h-7.767v8.238
		c0,2.777,1.459,4.143,4.425,4.143c1.365,0,2.448-0.188,3.342-0.376v6.12c-1.647,0.423-3.389,0.659-5.46,0.659
		c-7.202,0-10.356-3.06-10.356-8.755V16.411h-5.319V11.139z"/>
	<path style="fill:#010202;" d="M144.313,22.86c0-7.956,6.12-12.427,14.687-12.427s14.734,4.472,14.734,12.427
		S167.567,35.381,159,35.381S144.313,30.815,144.313,22.86z M165.543,22.86c0-4.613-2.542-7.014-6.543-7.014
		c-4.001,0-6.543,2.401-6.543,7.014s2.542,7.108,6.543,7.108C163.001,29.968,165.543,27.473,165.543,22.86z"/>
</g>
</svg>
