<?xml version="1.0" encoding="utf-8"?>
<!-- Generator: Adobe Illustrator 26.1.0, SVG Export Plug-In . SVG Version: 6.00 Build 0)  -->
<svg version="1.1" id="Layer_1" xmlns="http://www.w3.org/2000/svg" xmlns:xlink="http://www.w3.org/1999/xlink" x="0px" y="0px"
	 viewBox="0 0 401.4 52" style="enable-background:new 0 0 401.4 52;" xml:space="preserve">
<style type="text/css">
	.st0{fill:#1A1919;}
</style>
<g id="Page-1">
	<g id="tc">
		<polyline id="Fill-4" class="st0" points="41.2,2 0,2 0,13.9 13.8,13.9 13.8,51.2 27.4,51.2 27.4,13.9 41.2,13.9 41.2,2 		"/>
		<path id="Fill-5" class="st0" d="M56.7,13.5c-9.7,0-16.9,6.5-16.9,19.3C39.8,44.1,45.9,52,57,52c5.8,0,10.5-1.5,15-4.2l-4.8-8.1
			c-3.7,1.9-6.3,2.6-9.6,2.6c-3.4,0-5.8-1.8-6.3-5.9H73c0.1-0.6,0.1-1.4,0.1-2.5C73.2,20.2,66.9,13.5,56.7,13.5z M51.5,28.5
			c0.4-3.7,2-5.6,4.9-5.6c3.7,0,5,1.9,5.6,5.6H51.5z"/>
		<path id="Fill-6" class="st0" d="M97.2,41.7c-3.4,0-5.2-3-5.2-8.9c0-5.8,1.6-9.1,4.9-9.1c2.7,0,3.9,1.5,5.7,4.8l8.7-6.6
			c-3.2-5.2-7.2-8.4-14.2-8.4c-11.8,0-17.6,7.8-17.6,19.1c0,12.4,6.5,19.3,17.3,19.3c6.5,0,10.5-2.5,14.8-8.8l-8-6.3
			C101.2,40.4,99.6,41.7,97.2,41.7"/>
		<path id="Fill-7" class="st0" d="M140.8,13.5c-4.4,0-7,1.5-9.3,3.2V0l-12.7,5.1v46.2h12.7V30.2c0-4.6,1.6-5.9,4.3-5.9
			c2.6,0,4.2,1.3,4.2,6v21h12.7V28.7C152.7,19,148.8,13.5,140.8,13.5"/>
		<path id="Fill-8" class="st0" d="M183.2,40.1c-5.9,0-8.3-6-8.3-13.5c0-7.8,2.5-13.5,8.2-13.5c4.5,0,6.2,2.9,7.9,7.5l12.4-4.9
			c-3.4-9.3-8.2-14.5-20.3-14.5c-13.2,0-22.5,9.6-22.5,25.4c0,14.6,7.8,25.4,22.4,25.4c11.7,0,17.2-6.3,20.5-12.7L192,33.2
			C189.3,37.8,187.5,40.1,183.2,40.1"/>
		<path id="Fill-9" class="st0" d="M223.9,17v-2.7h-12.7v36.9h12.7V31.1c0-4.5,1.9-6,5-6c2.5,0,4.3,1.3,5.9,3.1l3-13.1
			c-1.5-0.9-3.3-1.6-6-1.6C228.5,13.5,226,14.9,223.9,17"/>
		<path id="Fill-10" class="st0" d="M264.9,35.4c0,4.6-1.6,5.9-4.2,5.9s-4.2-1.3-4.2-6v-21h-12.7v22.6c0,9.7,3.9,15.1,12,15.1
			c4.3,0,7-1.5,9.2-3.2v2.5h12.7V14.4H265L264.9,35.4"/>
		<path id="Fill-11" class="st0" d="M308.8,13.5c-4.4,0-7,1.5-9.3,3.2v-2.5h-12.7v36.9h12.7V30c0-4.6,1.6-5.9,4.3-5.9
			c2.6,0,4.2,1.3,4.2,6v21h12.7V28.5C320.7,19,316.9,13.5,308.8,13.5"/>
		<path id="Fill-12" class="st0" d="M345.9,41.7c-3.4,0-5.2-3-5.2-8.9c0-5.8,1.6-9.1,4.8-9.1c2.7,0,3.9,1.5,5.7,4.8l8.7-6.6
			c-3.2-5.2-7.2-8.4-14.2-8.4c-11.8,0-17.6,7.8-17.6,19.1c0,12.4,6.5,19.3,17.3,19.3c6.5,0,10.5-2.5,14.8-8.8l-8-6.3
			C350,40.4,348.3,41.7,345.9,41.7"/>
		<path id="Fill-13" class="st0" d="M389.5,13.5c-4.4,0-7,1.5-9.3,3.2V0l-12.7,5.1v46.2h12.7V30.2c0-4.6,1.6-5.9,4.3-5.9
			c2.6,0,4.2,1.3,4.2,6v21h12.7V28.7C401.5,19,397.6,13.5,389.5,13.5"/>
	</g>
</g>
</svg>
