<?xml version="1.0" encoding="utf-8"?>
<!-- Generator: Adobe Illustrator 26.1.0, SVG Export Plug-In . SVG Version: 6.00 Build 0)  -->
<svg version="1.1" id="Layer_1" xmlns="http://www.w3.org/2000/svg" xmlns:xlink="http://www.w3.org/1999/xlink" x="0px" y="0px"
	 viewBox="0 0 542.9 46" style="enable-background:new 0 0 542.9 46;" xml:space="preserve">
<style type="text/css">
	.st0{fill:#1C1C21;}
</style>
<g id="layer1" transform="translate(-67.092411,-701.4412)">
	<path id="path13406" class="st0" d="M607.1,741.1c-1.6,0-2.9,1.3-2.9,3.1c0,1.8,1.3,3.1,2.9,3.1s2.9-1.3,2.9-3.1
		C609.9,742.4,608.6,741.1,607.1,741.1 M502.3,747.1h13.3v-1.2l-1.4-0.3c-1.3-0.3-1.9-1.1-1.9-2.9v-17.9h3.1c1.9,0,2.9,0.5,3,4.5
		l0.3,8.4c0.3,7.6,2.4,9.7,6.1,9.7c3.8,0,4.7-2.6,4.7-6.2v-1.5h-1.4v1.1c0,2.4-0.3,4.1-1.3,4.1c-0.9,0-0.9-0.7-1.1-3.7l-0.4-5.8
		c-0.5-7.8-1.5-10.5-7.2-11.5c5.5-1.4,8.8-5.5,8.8-11.2c0-7.4-5.9-11-11.5-11h-22.4v1.2l1.3,0.3c2.4,0.5,2.4,1.8,2.4,7.1v26.2
		c0,5.9-1.6,8.7-5.4,8.7c-3.4,0-5.2-1.6-5.2-8V706c0-1.8,0.6-2.4,2-2.7l1.8-0.4v-1.2h-13.8v1.2l1.4,0.4c1.3,0.4,1.8,0.9,1.8,2.8
		v30.6c0,6.9,4,10.7,10.1,10.7c6.1,0,9.1-3.8,9.1-10.9V708c0-3.6,0.7-4.8,3.6-4.8c2.3,0,3.3,0.8,3.3,3v36.6c0,1.8-0.6,2.5-1.9,2.8
		l-1.4,0.4L502.3,747.1L502.3,747.1z M590.6,706.1c0-1.8,0.6-2.4,1.9-2.7l1.8-0.4v-1.3h-13.7v1.2l1.4,0.4c1.3,0.4,1.9,0.9,1.9,2.8
		V743c0,1.8-0.7,2.8-2.8,2.8c-2.4,0-2.7-0.8-3.6-4.7l-8.4-39.4h-2.6l-8,38.2c-0.9,4.3-1.4,5.3-3.2,5.8l-1.1,0.3v1.2h9.4v-1.2
		l-1.4-0.3c-2-0.4-2.5-1.4-1.5-6.4l4.7-24.4l5.2,25.9c0.8,3.8,0.7,4.5-2.1,5l-1.4,0.3v1.2h34.9v-15h-1.3c-0.7,6.9-2,13.4-7.6,13.4
		h-2.6L590.6,706.1L590.6,706.1z M570.1,734.9v-1.8h-8.9l-0.3,1.8H570.1z M533.3,706.9v31.5c0,4.7,0,7-2.4,7.4l-1.2,0.2v1.2h9.7
		v-1.2c-4.2-0.6-4.2-2-4.2-7.2v-29.9l-1.6-1.4l16.1,39.7h2.8v-36.6c0-5.4,0-6.6,2.6-7.3l0.9-0.3v-1.2h-9.9v1.2l1.1,0.3
		c3.4,0.6,3.4,1.9,3.4,6.9V733l0.7-0.2l-12.2-31.1h-9.4v1.2l0.9,0.3C531.6,703.5,532.2,704.7,533.3,706.9 M512.2,703.3h2.6
		c2.6,0,5.1,1.7,5.1,10.3c0,8.8-1.8,9.6-5.5,9.6h-2.2V703.3z M468.4,724c0,19-1.6,21.7-5,21.7c-3.4,0-4.9-2.7-4.9-21.6
		c0-18.3,1.6-20.9,4.9-20.9C466.8,703.2,468.4,705.9,468.4,724 M475.6,724.4c0-12.6-4-23-12.2-23c-8.2,0-12.1,10.4-12.1,23
		c0,12.6,4,23,12.1,23C471.7,747.4,475.6,737,475.6,724.4 M447.4,706.1c0-1.8,0.5-2.4,1.8-2.8l1.4-0.4v-1.2H437v1.2l1.6,0.4
		c1.3,0.3,2,0.8,2,2.7v31.7c0,4.4-0.4,8-3.7,8c-2.1,0-3.7-1.6-3.6-2.8c0.2-2,3.6-1.9,3.9-5.2c0.2-2.4-1.3-3.4-2.7-3.6
		c-2-0.3-4.5,1.4-4.6,4.9c-0.1,4.4,2.8,8.4,7.8,8.4c5.5,0,9.7-3.7,9.7-10.7L447.4,706.1L447.4,706.1z M227.6,706.1
		c0-1.8,0.6-2.4,1.9-2.7l1.8-0.4v-1.3h-13.7v1.2l1.4,0.4c1.3,0.4,1.9,0.9,1.9,2.8V743c0,1.8-0.7,2.8-2.8,2.8c-2.4,0-2.8-0.8-3.6-4.7
		l-8.4-39.4h-2.6l-8,38.2c-0.9,4.3-1.4,5.3-3.2,5.8l-1.1,0.3v1.2h9.4v-1.2l-1.4-0.3c-2-0.4-2.5-1.4-1.5-6.4l4.7-24.5l5.2,26
		c0.7,3.8,0.7,4.5-2.1,5l-1.4,0.3v1.2h34.9v-15h-1.3c-0.7,6.9-2,13.4-7.6,13.4h-2.6V706.1z M410.8,703.3h1.4c4.1,0,5.5,6.5,5.9,13.4
		h1.2v-15h-23.9v15h1.3c0.5-6.9,1.8-13.4,5.9-13.4h1.4v39.4c0,1.8-0.6,2.5-1.9,2.8l-1.7,0.4v1.2h14.2v-1.2l-2-0.5
		c-1.3-0.3-1.9-0.7-1.9-2.8L410.8,703.3L410.8,703.3z M380.7,724.3l2,0.1c3,0.1,3.8,1.2,4.4,8.4h1.2v-18.3h-1.2
		c-0.7,5.7-1.5,8.2-4.3,8.2l-2.1,0.1v-19.4h4.5c5.1,0,6.2,6.4,6.9,13.4h1.3v-15h-22.7v1.2l1.4,0.4c1.5,0.4,1.9,1.3,1.9,2.8v36.5
		c0,1.8-0.6,2.5-1.9,2.8l-1.4,0.4v1.2h23.4v-15h-1.3c-0.8,6.8-1.6,13.4-7.6,13.4h-4.5L380.7,724.3L380.7,724.3z M355.9,724.3l2,0.1
		c3,0.1,3.8,1.2,4.4,8.4h1.3v-18.3h-1.3c-0.7,5.7-1.5,8.2-4.3,8.2l-2.1,0.1v-19.4h4.5c5.1,0,6.2,6.5,6.9,13.4h1.3v-15h-23.4v1.2
		l2.1,0.4c1.5,0.4,1.9,1.3,1.9,2.8v36.5c0,1.8-0.6,2.5-1.9,2.8l-1.4,0.4v1.2h23.4v-15H368c-0.8,6.8-1.6,13.4-7.6,13.4h-4.5V724.3
		L355.9,724.3z M328.9,703.3h2c2.6,0,5.1,1.7,5.1,10.3c0,8.6-1.8,9.6-5.5,9.6h-1.5V703.3z M318.9,747.1h13.3v-1.2l-1.4-0.3
		c-1.3-0.3-1.9-1.1-1.9-2.9v-17.9h2.4c1.9,0,2.9,0.8,3,4.5l0.3,8.4c0.3,7.6,2.4,9.7,6.1,9.7c3.8,0,4.7-2.6,4.7-6.2v-1.5h-1.4v1.1
		c0,2.4-0.3,4.1-1.3,4.1c-0.9,0-0.9-0.7-1.1-3.7l-0.4-5.8c-0.5-8-1.6-10.5-7.2-11.5c5.5-1.4,8.8-5.5,8.8-11.2c0-7.4-5.9-11-11.5-11
		h-12.6v1.2l1.4,0.4c1.3,0.4,1.9,0.9,1.9,2.8v36.6c0,1.8-0.6,2.5-1.9,2.8l-1.4,0.4L318.9,747.1L318.9,747.1z M308.9,703.3h1.4
		c4.1,0,5.5,6.5,5.9,13.4h1.2v-15h-23.9v15h1.3c0.5-6.9,1.8-13.4,5.9-13.4h1.4v39.4c0,1.8-0.6,2.5-1.9,2.8l-1.7,0.4v1.2h13.9v-1.2
		l-1.7-0.4c-1.7-0.4-1.9-1.7-1.9-2.8V703.3z M293.7,735.3c0-13.5-14.8-17-14.8-26.8c0-2.1,0.8-5.3,4.1-5.3c4.7,0,6.5,6.1,7.3,13.6
		h1.3v-15h-0.8c-0.3,1.4-0.9,2.1-1.8,2.1c-1.5,0-2.3-2.4-5.9-2.4c-5.6,0-9.4,4.7-9.4,10.8c0,11.1,14.8,15.8,14.8,26.1
		c0,4.7-2.2,7.3-5.1,7.3c-4.4,0-7.3-5.2-8.1-13.6h-1.3v15h0.8c0.7-2.2,1.5-2.4,2.2-2.4c1.3,0,2.6,2.6,6.4,2.6
		C289.2,747.4,293.7,742.3,293.7,735.3 M250.6,706.1c0-1.8,0.6-2.4,1.9-2.7l1.8-0.4v-1.3h-13.7v1.2l1.4,0.4c1.3,0.4,1.9,0.9,1.9,2.8
		v36.6c0,1.8-0.6,2.5-1.9,2.8l-1.4,0.4v1.2h21.5v-15h-1.3c-0.7,6.9-2,13.4-7.6,13.4h-2.6V706.1z M207,734.9v-1.8h-8.9l-0.3,1.8H207
		L207,734.9z M169,747.2h2.7l6.1-32.4h-0.9l6.7,32.4h2.4l8-38.2c0.9-4,1.3-5.4,2.9-5.8l1.3-0.3v-1.2h-9.3v1.2l1.4,0.3
		c2,0.4,2.4,1.6,1.5,6.4l-5.2,25.6h0.8l-5.3-27c-0.5-2.6-0.9-4.7,1.3-5.1l1.4-0.3v-1.2h-12.7v1.2l0.9,0.2c1.3,0.3,1.5,1.1,2,3.6
		l2,9.8l-0.4-5.9l-4.5,24h0.6l-5.3-26.3c-0.6-2.7-0.8-4.7,1.3-5.1l1-0.2v-1.2h-13v1.2l1.3,0.3c1.2,0.3,1.8,0.9,2.6,4.5L169,747.2
		L169,747.2z M133.8,724.3l2,0.1c3,0.1,3.8,1.2,4.4,8.4h1.3v-18.3h-1.3c-0.7,5.7-1.5,8.2-4.3,8.2l-2.1,0.1v-19.4h4.5
		c5.1,0,6.2,6.5,6.9,13.4h1.3v-15h-22.7v1.2l1.4,0.4c1.5,0.4,1.9,1.3,1.9,2.8v36.5c0,1.8-0.6,2.5-1.9,2.8l-1.4,0.4v1.2h23.4v-15
		h-1.3c-0.8,6.8-1.6,13.4-7.6,13.4h-4.5V724.3L133.8,724.3z M92.4,747.1h13.5v-1.2l-1.5-0.3c-1.2-0.3-2-1.1-2-2.9v-18h9.9v18
		c0,1.8-0.8,2.6-2,2.9l-1.5,0.3v1.2h13.5v-1.2l-1.4-0.4c-1.3-0.3-1.9-1.1-1.9-2.9v-36.5c0-1.8,0.6-2.4,1.9-2.8l1.4-0.4v-1.2h-13.5
		v1.2l1.5,0.4c1.1,0.3,2,0.8,2,2.7V723h-9.9V706c0-1.8,0.7-2.4,2-2.7l1.5-0.4v-1.2H92.4v1.2l1.4,0.4c1.3,0.4,1.9,0.9,1.9,2.8v36.6
		c0,1.8-0.6,2.5-1.9,2.8l-1.4,0.4L92.4,747.1L92.4,747.1z M82.4,703.3h1.4c4.1,0,5.5,6.5,5.9,13.4H91v-15H67.1v15h1.3
		c0.5-6.9,1.8-13.4,5.9-13.4h1.4v39.4c0,1.8-0.6,2.5-1.9,2.8l-1.7,0.4v1.2h14.2v-1.2l-2-0.5c-1.3-0.3-1.9-0.7-1.9-2.8L82.4,703.3
		L82.4,703.3z"/>
</g>
</svg>
